<?xml version="1.0" encoding="UTF-8"?>
<!DOCTYPE svg PUBLIC "-//W3C//DTD SVG 1.1//EN" "http://www.w3.org/Graphics/SVG/1.1/DTD/svg11.dtd">
<svg version="1.1" xmlns="http://www.w3.org/2000/svg" xmlns:xlink="http://www.w3.org/1999/xlink" x="0" y="0" width="816.567" height="452" viewBox="0, 0, 816.567, 452">
  <g id="Layer_1">
    <path d="M453.5,148.5 L453.5,307.5" fill-opacity="0" stroke="#000000" stroke-width="4"/>
    <path d="M390.5,126.5 L390.5,331.5" fill-opacity="0" stroke="#000000" stroke-width="4"/>
    <path d="M314.5,98.5 L314.5,358.5" fill-opacity="0" stroke="#000000" stroke-width="4"/>
    <path d="M213.5,57.5 L213.5,396.5" fill-opacity="0" stroke="#000000" stroke-width="4"/>
    <path d="M88.5,9.5 L88.5,443.5" fill-opacity="0" stroke="#000000" stroke-width="4"/>
    <path d="M65,210 L502,210 L502,245 L65,245 L65,210 z" fill="#FFFAFA"/>
    <path d="M664.5,226.5 L88.5,9.5" fill-opacity="0" stroke="#656565" stroke-width="3" stroke-dasharray="18,6,6,6"/>
    <path d="M664.5,226.5 L88.5,443.5" fill-opacity="0" stroke="#656565" stroke-width="3" stroke-dasharray="18,6,6,6"/>
    <path d="M735.5,226.5 L5.5,226.5" fill-opacity="0" stroke="#A3A3A3" stroke-width="3" stroke-dasharray="72,12,12,12"/>
    <path d="M88.5,210.5 L214.5,245.5" fill-opacity="0" stroke="#000000" stroke-width="3"/>
    <path d="M214.5,245.5 L314.5,210.5" fill-opacity="0" stroke="#000000" stroke-width="3"/>
    <path d="M314.5,210.5 L391.5,245.5" fill-opacity="0" stroke="#000000" stroke-width="3"/>
    <path d="M391.5,245.5 L454.5,210.5" fill-opacity="0" stroke="#000000" stroke-width="3"/>
    <g>
      <path d="M454.5,210.5 L493.1,210.5" fill-opacity="0" stroke="#000000" stroke-width="3"/>
      <path d="M493.1,210.5 L490.3,214.7 L501.5,210.5 L490.3,206.3 z" fill="#000000" fill-opacity="1" stroke="#000000" stroke-width="3" stroke-opacity="1"/>
    </g>
    <path d="M88.5,245.5 L214.5,210.5" fill-opacity="0" stroke="#000000" stroke-width="3"/>
    <path d="M214.5,210.5 L314.5,245.5" fill-opacity="0" stroke="#000000" stroke-width="3"/>
    <path d="M314.5,245.5 L391.5,210.5" fill-opacity="0" stroke="#000000" stroke-width="3"/>
    <path d="M391.5,210.5 L453.5,245.5" fill-opacity="0" stroke="#000000" stroke-width="3"/>
    <g>
      <path d="M453.5,245.5 L493.1,245.5" fill-opacity="0" stroke="#000000" stroke-width="3"/>
      <path d="M493.1,245.5 L490.3,249.7 L501.5,245.5 L490.3,241.3 z" fill="#000000" fill-opacity="1" stroke="#000000" stroke-width="3" stroke-opacity="1"/>
    </g>
    <path d="M555.997,226.5 C555.997,226.5 555.173,245.3 565.886,264.917" fill-opacity="0" stroke="#C81919" stroke-width="5"/>
    <g>
      <path d="M509.508,263.364 C523.879,265.211 507.507,226.669 525.5,228.035" fill-opacity="0" stroke="#656565" stroke-width="4"/>
      <path d="M509.508,192.636 C523.879,190.789 507.507,229.331 525.5,227.965" fill-opacity="0" stroke="#656565" stroke-width="4"/>
    </g>
    <path d="M525.5,227.964 C534.189,228.322 545.273,57.612 555.982,57.5" fill-opacity="0" stroke="#656565" stroke-width="4"/>
    <text transform="matrix(1, 0, 0, 1, 603.659, 58.5)">
      <tspan x="-59.639" y="-15.5" font-family="Avenir-Medium" font-size="29" fill="#656565">Balanced </tspan>
      <tspan x="-43.239" y="24.5" font-family="Avenir-Medium" font-size="29" fill="#656565">feeder</tspan>
    </text>
    <text transform="matrix(1, 0, 0, 1, 732.659, 154.5)">
      <tspan x="-64.438" y="-15.5" font-family="Avenir-Medium" font-size="29" fill="#656565">Maximum </tspan>
      <tspan x="-58.276" y="24.5" font-family="Avenir-Medium" font-size="29" fill="#656565">radiation</tspan>
    </text>
    <text transform="matrix(1, 0, 0, 1, 619.659, 347.5)">
      <tspan x="-54.055" y="5.5" font-family="Avenir-Medium" font-size="29" fill="#656565">Angle </tspan>
      <tspan x="31.35" y="5.5" font-family="LucidaGrande-Bold" font-size="31" fill="#656565">α</tspan>
    </text>
    <g>
      <path d="M545.051,254.698 C516.198,271.652 524.223,338.864 555.982,346.068" fill-opacity="0" stroke="#656565" stroke-width="4"/>
      <path d="M545.051,254.698 L543.527,260.262 L554.162,251.673 L540.502,251.151 z" fill="#656565" fill-opacity="1" stroke="#656565" stroke-width="4" stroke-opacity="1"/>
    </g>
    <g>
      <path d="M664.5,192.572 L771.25,192.572" fill-opacity="0" stroke="#DE787A" stroke-width="6"/>
      <path d="M771.25,192.572 L767.25,198.572 L783.25,192.572 L767.25,186.572 z" fill="#DE787A" fill-opacity="1" stroke="#DE787A" stroke-width="6" stroke-opacity="1"/>
    </g>
  </g>
</svg>
