<?xml version="1.0" encoding="UTF-8" standalone="no"?>
<!-- Generator: Adobe Illustrator 19.0.0, SVG Export Plug-In . SVG Version: 6.00 Build 0)  -->

<svg
   xmlns:dc="http://purl.org/dc/elements/1.1/"
   xmlns:cc="http://creativecommons.org/ns#"
   xmlns:rdf="http://www.w3.org/1999/02/22-rdf-syntax-ns#"
   xmlns:svg="http://www.w3.org/2000/svg"
   xmlns="http://www.w3.org/2000/svg"
   xmlns:sodipodi="http://sodipodi.sourceforge.net/DTD/sodipodi-0.dtd"
   xmlns:inkscape="http://www.inkscape.org/namespaces/inkscape"
   version="1.1"
   id="Capa_1"
   x="0px"
   y="0px"
   viewBox="0 0 415.999 415.999"
   style="enable-background:new 0 0 415.999 415.999;"
   xml:space="preserve"
   sodipodi:docname="clipboard.svg"
   inkscape:version="0.92.4 (5da689c313, 2019-01-14)"><metadata
   id="metadata61"><rdf:RDF><cc:Work
       rdf:about=""><dc:format>image/svg+xml</dc:format><dc:type
         rdf:resource="http://purl.org/dc/dcmitype/StillImage" /></cc:Work></rdf:RDF></metadata><defs
   id="defs59" /><sodipodi:namedview
   pagecolor="#ffffff"
   bordercolor="#666666"
   borderopacity="1"
   objecttolerance="10"
   gridtolerance="10"
   guidetolerance="10"
   inkscape:pageopacity="0"
   inkscape:pageshadow="2"
   inkscape:window-width="1362"
   inkscape:window-height="729"
   id="namedview57"
   showgrid="false"
   inkscape:zoom="0.56730907"
   inkscape:cx="-215.05033"
   inkscape:cy="207.9995"
   inkscape:window-x="0"
   inkscape:window-y="198"
   inkscape:window-maximized="0"
   inkscape:current-layer="Capa_1" />
<g
   id="g6">
	<g
   id="g4">
		<rect
   x="112.002"
   y="175.999"
   width="192"
   height="32"
   id="rect2" />
	</g>
</g>
<g
   id="g12">
	<g
   id="g10">
		<rect
   x="112.002"
   y="239.999"
   width="192"
   height="32"
   id="rect8" />
	</g>
</g>
<g
   id="g18">
	<g
   id="g16">
		<rect
   x="112.002"
   y="303.999"
   width="192"
   height="32"
   id="rect14" />
	</g>
</g>
<g
   id="g24">
	<g
   id="g22">
		<path
   d="M335.999,64h-44.423c-5.926-6.583-13.538-11.62-22.284-14.136c-7.368-2.118-13.038-7.788-15.156-15.156    C248.371,14.664,229.898,0,208,0c-21.898,0-40.37,14.664-46.136,34.707c-2.121,7.376-7.805,13.039-15.181,15.164    c-8.738,2.518-16.342,7.55-22.262,14.129H80C62.327,64,48,78.327,48,96v287.999c0,17.673,14.326,32,31.999,32h255.999    c17.674,0,32-14.327,32-32V96C367.999,78.327,353.672,64,335.999,64z M208.206,32c8.837,0,16,7.163,16,16c0,8.836-7.163,16-16,16    s-16-7.164-16-16C192.206,39.163,199.368,32,208.206,32z M335.999,383.999H80V96h32v32h192V96h31.999V383.999z"
   id="path20" />
	</g>
</g>
<g
   id="g26">
</g>
<g
   id="g28">
</g>
<g
   id="g30">
</g>
<g
   id="g32">
</g>
<g
   id="g34">
</g>
<g
   id="g36">
</g>
<g
   id="g38">
</g>
<g
   id="g40">
</g>
<g
   id="g42">
</g>
<g
   id="g44">
</g>
<g
   id="g46">
</g>
<g
   id="g48">
</g>
<g
   id="g50">
</g>
<g
   id="g52">
</g>
<g
   id="g54">
</g>
<path
   style="opacity:1;fill:#ffffff;fill-opacity:1;stroke:#000000;stroke-width:4.43036413;stroke-linecap:butt;stroke-linejoin:round;stroke-miterlimit:4;stroke-dasharray:none;stroke-dashoffset:0;stroke-opacity:1;paint-order:normal"
   d="m 65.396452,411.3092 c -7.048638,-4.3539 -10.768984,-8.74341 -14.034434,-16.55873 -2.36671,-5.66434 -2.711288,-25.25962 -2.711288,-154.18403 0,-91.21248 0.660829,-149.999202 1.72799,-153.720172 1.941868,-6.7709 9.107849,-15.054454 16.252226,-18.786851 3.464479,-1.809929 11.771811,-2.486694 30.524318,-2.486694 25.410126,0 25.850706,-0.06667 32.040036,-4.847446 3.45159,-2.666096 11.13255,-7.227101 17.06879,-10.135569 10.12733,-4.961902 11.18758,-6.082452 17.18686,-18.164421 7.59432,-15.294212 11.30829,-19.537908 22.3664,-25.5564851 25.83352,-14.0603612 57.77361,-1.1433755 67.07283,27.1251111 2.59858,7.899392 9.70039,14.652784 18.29717,17.399502 3.63271,1.160674 9.85521,4.825838 13.82777,8.144812 l 7.22282,6.034496 h 26.36136 c 28.9472,0 32.84768,1.008006 40.89161,10.567675 2.50195,2.973395 5.36827,8.35611 6.36961,11.961587 2.50347,9.01412 2.50347,294.943455 0,303.957585 -2.33368,8.40278 -9.63321,17.05942 -16.9699,20.12487 -4.69219,1.96052 -30.90242,2.40317 -141.98027,2.39779 C 77.368702,414.57598 70.425104,414.41538 65.396452,411.3092 Z M 335.97207,240.08077 V 95.538752 h -16.74572 -16.74573 v 15.864368 15.86437 H 207.29441 112.1082 V 111.40312 95.538752 H 95.362481 78.616759 V 240.08077 384.6228 H 207.29441 335.97207 Z M 219.47135,60.057214 c 11.22833,-10.460781 4.04641,-27.975936 -11.47127,-27.975936 -6.14742,0 -8.23752,0.944098 -12.00657,5.423367 -2.50991,2.982852 -4.56346,7.397701 -4.56346,9.810776 0,14.681186 17.44909,22.609943 28.0413,12.741793 z"
   id="path871"
   inkscape:connector-curvature="0" /><path
   style="opacity:1;fill:#ffffff;fill-opacity:1;stroke:#000000;stroke-width:4.43036413;stroke-linecap:butt;stroke-linejoin:round;stroke-miterlimit:4;stroke-dasharray:none;stroke-dashoffset:0;stroke-opacity:1;paint-order:normal"
   d="M 112.1082,191.60632 V 176.6233 h 95.18621 95.18621 v 14.98302 14.98301 H 207.29441 112.1082 Z"
   id="path873"
   inkscape:connector-curvature="0" /><path
   style="opacity:1;fill:#ffffff;fill-opacity:1;stroke:#000000;stroke-width:4.43036413;stroke-linecap:butt;stroke-linejoin:round;stroke-miterlimit:4;stroke-dasharray:none;stroke-dashoffset:0;stroke-opacity:1;paint-order:normal"
   d="m 112.1082,255.94514 v -15.86437 h 95.18621 95.18621 v 15.86437 15.86437 H 207.29441 112.1082 Z"
   id="path875"
   inkscape:connector-curvature="0" /><path
   style="opacity:1;fill:#ffffff;fill-opacity:1;stroke:#000000;stroke-width:4.43036413;stroke-linecap:butt;stroke-linejoin:round;stroke-miterlimit:4;stroke-dasharray:none;stroke-dashoffset:0;stroke-opacity:1;paint-order:normal"
   d="m 112.1082,320.28397 v -14.98301 h 95.18621 95.18621 v 14.98301 14.98301 H 207.29441 112.1082 Z"
   id="path877"
   inkscape:connector-curvature="0" /></svg>